# xmcd
#
# Track frame offsets:
#	150
#	32180
#	70462
#	84775
#	110536
#	138777
#	174559
#	198776
#	214582
#	238891
#	270104
#
# Disc length: 3928 seconds
#
# Revision: 1
# Processed by: cddbd v1.5.2PL0 Copyright (c) Steve Scherf et al.
# Submitted via: audiograbber 1.83.01
#
DISCID=8f0f560b
DTITLE=Grateful Dead - 82-04-14 Glens Falls Civic Centre, Glens Falls NY
DYEAR=1900
DGENRE=
TTITLE0=Jack Straw
TTITLE1=They Love Each Other
TTITLE2=Me and My Uncle
TTITLE3=Big River
TTITLE4=Deep Elem Blues
TTITLE5=Little Red Rooster
TTITLE6=Brown Eyed Women
TTITLE7=Lazy Lightning
TTITLE8=Supplication
TTITLE9=Bertha
TTITLE10=US Blues
EXTD=
EXTT0=
EXTT1=
EXTT2=
EXTT3=
EXTT4=
EXTT5=
EXTT6=
EXTT7=
EXTT8=
EXTT9=
EXTT10=
PLAYORDER=
